<?xml version="1.0" encoding="UTF-8" standalone="no"?>
<!-- Created with Inkscape (http://www.inkscape.org/) -->

<svg
   width="599.00946mm"
   height="39.158333mm"
   viewBox="0 0 599.00946 39.158332"
   version="1.1"
   id="svg1"
   inkscape:version="1.4.2 (f4327f4, 2025-05-13)"
   sodipodi:docname="slide-gear.svg"
   xmlns:inkscape="http://www.inkscape.org/namespaces/inkscape"
   xmlns:sodipodi="http://sodipodi.sourceforge.net/DTD/sodipodi-0.dtd"
   xmlns="http://www.w3.org/2000/svg"
   xmlns:svg="http://www.w3.org/2000/svg">
  <sodipodi:namedview
     id="namedview1"
     pagecolor="#ffffff"
     bordercolor="#666666"
     borderopacity="1.0"
     inkscape:showpageshadow="2"
     inkscape:pageopacity="0.0"
     inkscape:pagecheckerboard="0"
     inkscape:deskcolor="#d1d1d1"
     inkscape:document-units="mm"
     inkscape:zoom="0.74016561"
     inkscape:cx="898.44758"
     inkscape:cy="91.195807"
     inkscape:window-width="2560"
     inkscape:window-height="1377"
     inkscape:window-x="1912"
     inkscape:window-y="-8"
     inkscape:window-maximized="1"
     inkscape:current-layer="svg1" />
  <defs
     id="defs1" />
  <g
     inkscape:label="Layer 1"
     inkscape:groupmode="layer"
     id="layer1"
     transform="translate(194.50459,-128.92075)" />
  <path
     id="path162"
     d="M 24.943698,0 V 0.00465667 C 19.702859,0.14118167 14.544682,3.3436323 12.972335,9.6200915 L 12.032852,13.403832 C 10.823839,18.240984 5.9161311,22.489584 -5.2916668e-6,22.489584 v 16.66875 H 24.943692 h 0.350362 24.944213 24.944214 24.943699 24.94421 24.94422 24.94421 24.94422 24.94421 24.94421 24.9437 24.94421 24.94422 24.94422 24.9442 24.94421 24.94422 24.94422 24.9437 24.9442 24.94422 24.94421 24.94422 24.94421 v -16.66875 c -5.91613,0 -10.82436,-4.2486 -12.03338,-9.085752 L 586.03651,9.6200915 C 584.46415,3.3436455 579.30598,0.14114198 574.06514,0.00465667 V 0 c -0.0582,0 -0.11641,2.7781251e-4 -0.17515,0.00103188 C 573.83178,2.7781251e-4 573.77357,0 573.71536,0 v 0.00465667 c -5.24084,0.136525 -10.39954,3.33898883 -11.97188,9.61543483 l -0.93953,3.7837405 c -1.19711,4.789381 -6.02046,9.001972 -11.85819,9.08472 -5.83773,-0.08334 -10.66112,-4.295339 -11.85819,-9.08472 L 536.14803,9.6200915 C 534.57569,3.3436323 529.41751,0.14112875 524.17667,0.00465667 V 0 c -0.0582,0 -0.11642,2.7781251e-4 -0.17515,0.00103188 C 523.94331,2.7781251e-4 523.8851,0 523.82689,0 v 0.00465667 c -5.24084,0.136525 -10.39901,3.33897563 -11.97136,9.61543483 l -0.94007,3.7837405 c -1.19711,4.789381 -6.01994,9.001972 -11.85767,9.08472 -5.83771,-0.08334 -10.66112,-4.295339 -11.85819,-9.08472 L 486.2602,9.6200915 C 484.68789,3.3436323 479.52921,0.14112875 474.28837,0.00465667 V 0 c -0.0582,0 -0.11642,2.7781251e-4 -0.17463,0.00103188 C 474.05553,2.7781251e-4 473.99733,0 473.93859,0 v 0.00465667 c -5.24084,0.136525 -10.39901,3.33897563 -11.97135,9.61543483 l -0.93954,3.7837405 c -1.19711,4.789381 -6.02047,9.001972 -11.85819,9.08472 -5.83772,-0.08334 -10.66112,-4.295339 -11.85819,-9.08472 L 436.37179,9.6200915 C 434.79944,3.3436455 429.64126,0.14114198 424.40042,0.00465667 V 0 c -0.0582,0 -0.11641,2.7781251e-4 -0.17515,0.00103188 C 424.16706,2.7781251e-4 424.10885,0 424.05012,0 v 0.00465667 c -5.24084,0.136525 -10.39903,3.33898883 -11.97137,9.61543483 l -0.93953,3.7837405 c -1.19711,4.789381 -6.02047,9.001972 -11.85819,9.08472 -5.83773,-0.08334 -10.66112,-4.295339 -11.85819,-9.08472 L 386.4833,9.6200915 C 384.91096,3.3436323 379.75278,0.14112875 374.51194,0.00465667 V 0 c -0.0582,0 -0.11642,2.7781251e-4 -0.17515,0.00103188 C 374.27858,2.7781251e-4 374.22037,0 374.16216,0 v 0.00465667 c -5.24084,0.136525 -10.39953,3.33897563 -11.97188,9.61543483 l -0.93954,3.7837405 c -1.1971,4.789381 -6.02047,9.001972 -11.8582,9.08472 -5.83771,-0.08334 -10.66059,-4.295339 -11.85767,-9.08472 L 336.59494,9.6200915 C 335.02261,3.3436323 329.86444,0.14112875 324.6236,0.00465667 V 0 c -0.0582,0 -0.11642,2.7781251e-4 -0.17463,0.00103188 C 324.39077,2.7781251e-4 324.33256,0 324.27382,0 v 0.00465667 c -5.24084,0.136525 -10.39901,3.33897563 -11.97135,9.61543483 l -0.93954,3.7837405 c -1.1971,4.789381 -6.02047,9.001972 -11.85818,9.08472 -5.83773,-0.08334 -10.66113,-4.295339 -11.85819,-9.08472 L 286.70702,9.6200915 C 285.13467,3.3436455 279.97598,0.14114198 274.73514,0.00465667 V 0 c -0.0582,0 -0.11642,2.7781251e-4 -0.17462,0.00103188 C 274.50231,2.7781251e-4 274.4441,0 274.38536,0 V 0.00465667 C 269.14452,0.14118167 263.98635,3.3436455 262.414,9.6200915 l -0.93954,3.7837405 c -1.19711,4.789381 -6.02046,9.001972 -11.85819,9.08472 -5.83771,-0.08334 -10.66112,-4.295339 -11.85819,-9.08472 L 236.81855,9.6200915 C 235.24621,3.3436323 230.08803,0.14112875 224.8472,0.00465667 V 0 C 224.789,0 224.73078,2.7781251e-4 224.67204,0.00103188 224.61384,2.7781251e-4 224.55563,0 224.49689,0 v 0.00465667 c -5.24084,0.136525 -10.39901,3.33897563 -11.97136,9.61543483 l -0.93954,3.7837405 c -1.19711,4.789381 -6.02047,9.001972 -11.85819,9.08472 -5.83773,-0.08334 -10.66112,-4.295339 -11.8582,-9.08472 L 186.9302,9.6200915 C 185.35784,3.3436323 180.19967,0.14114198 174.95883,0.00465667 V 0 c -0.0583,0 -0.11681,2.7781251e-4 -0.17518,0.00103188 C 174.72531,2.7781251e-4 174.66737,0 174.60899,0 v 0.00465667 c -5.24084,0.136525 -10.39954,3.33897563 -11.97188,9.61543483 l -0.93949,3.7837405 c -1.19707,4.789381 -6.02047,9.001972 -11.85819,9.08472 -5.83772,-0.08275 -10.6606,-4.295339 -11.85767,-9.08472 L 137.04177,9.6200915 C 135.46942,3.3436323 130.31124,0.14114198 125.0704,0.00465667 V 0 c -0.0583,0 -0.11628,2.7781251e-4 -0.17466,0.00103188 C 124.8374,2.7781251e-4 124.77892,0 124.72056,0 V 0.00465667 C 119.47972,0.14114198 114.32154,3.3436323 112.74919,9.6200915 l -0.93948,3.7837405 c -1.19707,4.789381 -6.02047,9.001972 -11.858187,9.08472 -5.837722,-0.08275 -10.66112,-4.295339 -11.858192,-9.08472 L 87.153854,9.6200915 C 85.581507,3.3436323 80.42333,0.14114198 75.182491,0.00465667 V 0 C 75.12415,0 75.065678,2.7781251e-4 75.00731,0.00103188 74.94897,2.7781251e-4 74.890497,0 74.83213,0 V 0.00465667 C 69.591292,0.14118167 64.433114,3.3436323 62.860768,9.6200915 l -0.939477,3.7837405 c -1.197072,4.789381 -6.02047,9.001972 -11.858191,9.08472 -5.837721,-0.08334 -10.661119,-4.295339 -11.858191,-9.08472 L 37.265432,9.6200915 C 35.69308,3.3436323 30.534902,0.14114198 25.294064,0.00465667 V 0 C 25.235723,0 25.177251,2.7781251e-4 25.118883,0.00103188 25.060543,2.7781251e-4 25.00207,0 24.943698,0 Z"
     style="stroke-width:13.2292" />
</svg>
